solid OpenSCAD_Model
  facet normal -1 0 0
    outer loop
      vertex -50 -5 -38
      vertex -50 2 -38
      vertex -50 -5 -48
    endloop
  endfacet
  facet normal -1 0 0
    outer loop
      vertex -50 -5 -48
      vertex -50 2 -38
      vertex -50 2 -45
    endloop
  endfacet
  facet normal -1 0 0
    outer loop
      vertex -50 -5 -48
      vertex -50 2 -45
      vertex -50 5 -45
    endloop
  endfacet
  facet normal -1 0 0
    outer loop
      vertex -50 -5 -48
      vertex -50 5 -45
      vertex -50 5 -48
    endloop
  endfacet
  facet normal 0 -2.22045e-16 1
    outer loop
      vertex -45 -1 -38
      vertex -50 -5 -38
      vertex 50 -5 -38
    endloop
  endfacet
  facet normal 0 -2.22045e-16 1
    outer loop
      vertex -50 2 -38
      vertex -50 -5 -38
      vertex -45 -1 -38
    endloop
  endfacet
  facet normal 0 -2.22045e-16 1
    outer loop
      vertex -45 1 -38
      vertex 45 1 -38
      vertex -50 2 -38
    endloop
  endfacet
  facet normal 0 -2.22045e-16 1
    outer loop
      vertex -50 2 -38
      vertex -45 -1 -38
      vertex -45 1 -38
    endloop
  endfacet
  facet normal 0 -2.22045e-16 1
    outer loop
      vertex 50 2 -38
      vertex 45 1 -38
      vertex 50 -5 -38
    endloop
  endfacet
  facet normal 0 -2.22045e-16 1
    outer loop
      vertex 50 2 -38
      vertex -50 2 -38
      vertex 45 1 -38
    endloop
  endfacet
  facet normal 0 -2.22045e-16 1
    outer loop
      vertex 45 1 -38
      vertex 45 -1 -38
      vertex 50 -5 -38
    endloop
  endfacet
  facet normal 0 -2.22045e-16 1
    outer loop
      vertex 45 -1 -38
      vertex -45 -1 -38
      vertex 50 -5 -38
    endloop
  endfacet
  facet normal 0 -1 -2.22045e-16
    outer loop
      vertex 50 -5 -38
      vertex -50 -5 -38
      vertex -50 -5 -48
    endloop
  endfacet
  facet normal 0 -1 -2.22045e-16
    outer loop
      vertex 50 -5 -48
      vertex 50 -5 -38
      vertex -50 -5 -48
    endloop
  endfacet
  facet normal 0 2.22045e-16 -1
    outer loop
      vertex -50 -5 -48
      vertex -50 5 -48
      vertex 50 -5 -48
    endloop
  endfacet
  facet normal 0 2.22045e-16 -1
    outer loop
      vertex 50 -5 -48
      vertex -50 5 -48
      vertex 50 5 -48
    endloop
  endfacet
  facet normal 0 1 2.22045e-16
    outer loop
      vertex -50 5 -45
      vertex 50 5 -45
      vertex -50 5 -48
    endloop
  endfacet
  facet normal 0 1 2.22045e-16
    outer loop
      vertex -50 5 -48
      vertex 50 5 -45
      vertex 50 5 -48
    endloop
  endfacet
  facet normal 0 -2.22045e-16 1
    outer loop
      vertex 50 2 -45
      vertex 50 5 -45
      vertex -50 5 -45
    endloop
  endfacet
  facet normal 0 -2.22045e-16 1
    outer loop
      vertex -50 2 -45
      vertex 50 2 -45
      vertex -50 5 -45
    endloop
  endfacet
  facet normal 0 1 2.22045e-16
    outer loop
      vertex 50 2 -45
      vertex -50 2 -45
      vertex 50 2 -38
    endloop
  endfacet
  facet normal 0 1 2.22045e-16
    outer loop
      vertex 50 2 -38
      vertex -50 2 -45
      vertex -50 2 -38
    endloop
  endfacet
  facet normal 1 0 0
    outer loop
      vertex 50 2 -38
      vertex 50 -5 -38
      vertex 50 -5 -48
    endloop
  endfacet
  facet normal 1 0 0
    outer loop
      vertex 50 2 -45
      vertex 50 2 -38
      vertex 50 -5 -48
    endloop
  endfacet
  facet normal 1 0 0
    outer loop
      vertex 50 5 -48
      vertex 50 2 -45
      vertex 50 -5 -48
    endloop
  endfacet
  facet normal 1 0 0
    outer loop
      vertex 50 5 -45
      vertex 50 2 -45
      vertex 50 5 -48
    endloop
  endfacet
  facet normal 1 0 0
    outer loop
      vertex -45 -1 -45
      vertex -45 1 -45
      vertex -45 1 -38
    endloop
  endfacet
  facet normal 1 0 0
    outer loop
      vertex -45 -1 -38
      vertex -45 -1 -45
      vertex -45 1 -38
    endloop
  endfacet
  facet normal 0 1 2.22045e-16
    outer loop
      vertex 45 -1 -45
      vertex -45 -1 -45
      vertex 45 -1 -38
    endloop
  endfacet
  facet normal 0 1 2.22045e-16
    outer loop
      vertex 45 -1 -38
      vertex -45 -1 -45
      vertex -45 -1 -38
    endloop
  endfacet
  facet normal -1 0 0
    outer loop
      vertex 45 1 -45
      vertex 45 -1 -45
      vertex 45 1 -38
    endloop
  endfacet
  facet normal -1 0 0
    outer loop
      vertex 45 1 -38
      vertex 45 -1 -45
      vertex 45 -1 -38
    endloop
  endfacet
  facet normal 0 -1 -2.22045e-16
    outer loop
      vertex -45 1 -45
      vertex 45 1 -45
      vertex 45 1 -38
    endloop
  endfacet
  facet normal 0 -1 -2.22045e-16
    outer loop
      vertex -45 1 -38
      vertex -45 1 -45
      vertex 45 1 -38
    endloop
  endfacet
  facet normal 0 -2.22045e-16 1
    outer loop
      vertex 45 -1 -45
      vertex 45 1 -45
      vertex -45 1 -45
    endloop
  endfacet
  facet normal 0 -2.22045e-16 1
    outer loop
      vertex -45 -1 -45
      vertex 45 -1 -45
      vertex -45 1 -45
    endloop
  endfacet
endsolid OpenSCAD_Model
